<?xml version="1.0" encoding="iso-8859-1"?>
<!-- Generator: Adobe Illustrator 19.0.0, SVG Export Plug-In . SVG Version: 6.00 Build 0)  -->
<svg version="1.1" id="Layer_1" xmlns="http://www.w3.org/2000/svg" xmlns:xlink="http://www.w3.org/1999/xlink" x="0px" y="0px"
	 viewBox="0 0 508 508" style="enable-background:new 0 0 508 508;" xml:space="preserve">
<g>
	<g>
		<path d="M465.75,173.1h-52.1L294.75,38.7c-1.1-21.5-18.9-38.7-40.7-38.7s-39.6,17.2-40.7,38.7L94.45,173.1h-52.1
			c-23.3,0-42.3,19-42.3,42.3v250.2c0,23.4,19,42.4,42.3,42.4h423.3c23.3,0,42.3-19,42.3-42.3V215.4
			C508.05,192.1,489.05,173.1,465.75,173.1z M254.05,28.2c6.9,0,12.5,5.6,12.5,12.5c0,6.9-5.6,12.5-12.5,12.5
			c-6.9,0-12.5-5.6-12.5-12.5C241.55,33.8,247.15,28.2,254.05,28.2z M224.45,68.8c7.4,7.8,17.9,12.8,29.6,12.8
			c11.6,0,22.1-4.9,29.6-12.8l92.3,104.4h-243.8L224.45,68.8z M465.75,479.8H42.35c-7.8,0-14.1-6.3-14.1-14.1v-84.3h25.9
			c7.8,0,14.1-6.3,14.1-14.1c0-7.8-6.3-14.1-14.1-14.1h-25.9V328h52.5c7.8,0,14.1-6.3,14.1-14.1c0-7.8-6.3-14.1-14.1-14.1h-52.5
			v-84.3c0-7.8,6.3-14.1,14.1-14.1h423.3c7.8,0,14.1,6.3,14.1,14.1v250.2h0.1C479.85,473.5,473.55,479.8,465.75,479.8z"/>
	</g>
</g>
<g>
	<g>
		<path d="M402.55,245.2h-62.7c-7.8,0-14.1,6.3-14.1,14.1s6.3,14.1,14.1,14.1h28.6l-107.1,107.1l-57.3-57.2c-2.6-2.6-6.2-4.1-10-4.1
			s-7.3,1.5-10,4.1l-88.6,88.6c-5.5,5.5-5.5,14.4,0,20c5.6,5.6,16,4,20,0l78.6-78.6l57.3,57.3c2.6,2.6,6.2,4.1,10,4.1
			c3.7,0,7.3-1.5,10-4.1l117.1-117.1V322c0,7.8,6.3,14.1,14.1,14.1s14.1-6.3,14.1-14.1v-62.7
			C416.65,251.5,410.35,245.2,402.55,245.2z"/>
	</g>
</g>
<g>
</g>
<g>
</g>
<g>
</g>
<g>
</g>
<g>
</g>
<g>
</g>
<g>
</g>
<g>
</g>
<g>
</g>
<g>
</g>
<g>
</g>
<g>
</g>
<g>
</g>
<g>
</g>
<g>
</g>
</svg>
