<?xml version="1.0" encoding="iso-8859-1"?>
<!-- Generator: Adobe Illustrator 18.1.1, SVG Export Plug-In . SVG Version: 6.00 Build 0)  -->
<svg version="1.1" id="Capa_1" xmlns="http://www.w3.org/2000/svg" xmlns:xlink="http://www.w3.org/1999/xlink" x="0px" y="0px"
	 viewBox="0 0 591.6 591.6" style="enable-background:new 0 0 591.6 591.6;" xml:space="preserve">
<g>
	<g>
		<path d="M540.6,40.8H510V10.2C510,4.488,505.512,0,499.8,0s-10.2,4.488-10.2,10.2v30.6H408V10.2C408,4.488,403.512,0,397.8,0
			s-10.2,4.488-10.2,10.2v30.6H306V10.2C306,4.488,301.512,0,295.8,0s-10.2,4.488-10.2,10.2v30.6H204V10.2
			C204,4.488,199.512,0,193.8,0s-10.2,4.488-10.2,10.2v30.6H102V10.2C102,4.488,97.512,0,91.8,0S81.6,4.488,81.6,10.2v30.6H51
			c-28.152,0-51,23.052-51,51v448.8c0,28.152,22.848,51,51,51h489.6c28.152,0,51-22.848,51-51V91.8
			C591.6,63.852,568.752,40.8,540.6,40.8z M51,61.2h30.6v30.6c0,5.712,4.488,10.2,10.2,10.2S102,97.512,102,91.8V61.2h81.6v30.6
			c0,5.712,4.488,10.2,10.2,10.2S204,97.512,204,91.8V61.2h81.6v30.6c0,5.712,4.488,10.2,10.2,10.2S306,97.512,306,91.8V61.2h81.6
			v30.6c0,5.712,4.488,10.2,10.2,10.2S408,97.512,408,91.8V61.2h81.6v30.6c0,5.712,4.488,10.2,10.2,10.2S510,97.512,510,91.8V61.2
			h30.6c16.932,0,30.6,13.668,30.6,30.6v91.8H20.4V91.8C20.4,75.072,34.068,61.2,51,61.2z M540.6,571.2H51
			c-16.932,0-30.6-13.668-30.6-30.6V204h550.8v336.6C571.2,557.532,557.532,571.2,540.6,571.2z"/>
		<path d="M204,510c33.66,0,61.2-27.54,61.2-61.2V306c0-33.66-27.54-61.2-61.2-61.2s-61.2,27.54-61.2,61.2v142.8
			C142.8,482.664,170.34,510,204,510z M163.2,306c0-22.44,18.36-40.8,40.8-40.8s40.8,18.36,40.8,40.8v142.8
			c0,22.44-18.36,40.8-40.8,40.8s-40.8-18.36-40.8-40.8V306z"/>
		<path d="M336.6,489.6c-5.712,0-10.2,4.488-10.2,10.2s4.488,10.2,10.2,10.2h102c5.712,0,10.2-4.488,10.2-10.2
			s-4.488-10.2-10.2-10.2H408V255c0-0.612,0-1.428-0.204-2.04c0-0.204-0.204-0.612-0.204-0.816c0-0.408-0.204-0.612-0.408-1.02
			s-0.408-0.612-0.612-1.02c-0.204-0.204-0.204-0.612-0.408-0.816c-0.816-1.02-1.632-2.04-2.856-2.856
			c-0.204-0.204-0.612-0.204-0.816-0.408c-0.408-0.204-0.612-0.408-1.02-0.612c-0.408-0.204-0.612-0.204-1.02-0.408
			c-0.204,0-0.612-0.204-0.816-0.204c-0.612-0.204-1.224-0.204-1.836-0.204l0,0l0,0c-0.612,0-1.224,0-1.836,0.204
			c-0.408,0-0.612,0.204-0.816,0.204c-0.408,0-0.612,0.204-1.02,0.408s-0.612,0.408-1.02,0.612
			c-0.204,0.204-0.612,0.204-0.816,0.408c-0.612,0.408-1.02,0.816-1.632,1.224l-61.2,61.2c-4.08,4.08-4.08,10.404,0,14.484
			c2.04,2.04,4.692,3.06,7.14,3.06c2.448,0,5.304-1.02,7.14-3.06l43.86-43.86V489.6H336.6z"/>
		<path d="M540.6,535.5H51c-2.856,0-5.1,2.244-5.1,5.1c0,2.856,2.244,5.1,5.1,5.1h489.6c2.856,0,5.1-2.244,5.1-5.1
			C545.7,537.744,543.456,535.5,540.6,535.5z"/>
		<path d="M183.6,306c0-11.22,9.18-20.4,20.4-20.4c2.856,0,5.1-2.244,5.1-5.1s-2.244-5.1-5.1-5.1c-16.932,0-30.6,13.668-30.6,30.6
			c0,2.856,2.244,5.1,5.1,5.1S183.6,308.856,183.6,306z"/>
		<path d="M51,158.1h489.6c2.856,0,5.1-2.244,5.1-5.1s-2.244-5.1-5.1-5.1H51c-2.856,0-5.1,2.244-5.1,5.1S48.144,158.1,51,158.1z"/>
	</g>
</g>
<g>
</g>
<g>
</g>
<g>
</g>
<g>
</g>
<g>
</g>
<g>
</g>
<g>
</g>
<g>
</g>
<g>
</g>
<g>
</g>
<g>
</g>
<g>
</g>
<g>
</g>
<g>
</g>
<g>
</g>
</svg>
