<?xml version="1.0" encoding="iso-8859-1"?>
<!-- Generator: Adobe Illustrator 19.0.0, SVG Export Plug-In . SVG Version: 6.00 Build 0)  -->
<svg version="1.1" id="Layer_1" xmlns="http://www.w3.org/2000/svg" xmlns:xlink="http://www.w3.org/1999/xlink" x="0px" y="0px"
	 viewBox="0 0 512 512" style="enable-background:new 0 0 512 512;" xml:space="preserve">
<g>
	<g>
		<path d="M48.077,35.917v440.165h63.729V35.917H48.077z M96.133,460.409H63.75V51.591h32.382V460.409z"/>
	</g>
</g>
<g>
	<g>
		<polygon points="496.327,67.603 496.327,75.962 487.967,75.962 487.967,91.635 496.327,91.635 496.327,99.995 512,99.995 
			512,67.603 		"/>
	</g>
</g>
<g>
	<g>
		<polygon points="135.837,75.962 135.837,67.603 120.163,67.603 120.163,99.995 135.837,99.995 135.837,91.635 144.196,91.635 
			144.196,75.962 		"/>
	</g>
</g>
<g>
	<g>
		<polygon points="415.869,75.962 415.869,59.244 400.196,59.244 400.196,75.962 231.967,75.962 231.967,59.244 216.294,59.244 
			216.294,75.962 152.555,75.962 152.555,91.635 216.294,91.635 216.294,139.701 231.967,139.701 231.967,91.635 400.196,91.635 
			400.196,139.701 415.869,139.701 415.869,91.635 479.608,91.635 479.608,75.962 		"/>
	</g>
</g>
<g>
	<g>
		<polygon points="424.229,115.668 424.229,131.342 472.294,131.342 472.294,315.244 159.869,315.244 159.869,131.342 
			207.935,131.342 207.935,115.668 144.196,115.668 144.196,330.917 487.967,330.917 487.967,115.668 		"/>
	</g>
</g>
<g>
	<g>
		<rect x="240.327" y="115.67" width="151.51" height="15.673"/>
	</g>
</g>
<g>
	<g>
		<polygon points="24.033,67.603 24.033,75.962 0,75.962 0,91.635 24.033,91.635 24.033,99.995 39.706,99.995 39.706,67.603 		"/>
	</g>
</g>
<g>
	<g>
		<path d="M246.225,229.619c-1.73-6.303-4.37-10.876-9.146-12.808v-0.302c5.893-2.137,12.093-8.132,12.093-16.877
			c0-6.303-2.235-11.079-6.299-14.332c-4.884-3.865-11.993-5.389-22.158-5.389c-8.236,0-15.66,0.608-20.635,1.423v67.599h15.345
			v-26.937h4.677c6.299,0.103,9.254,2.438,11.083,10.98c2.028,8.434,3.658,14.026,4.776,15.958h15.858
			C250.495,246.289,248.361,237.345,246.225,229.619z M221.527,210.813h-6.1v-18.909c1.118-0.203,3.253-0.505,7.011-0.505
			c7.118,0.099,11.389,3.253,11.389,9.551C233.826,206.952,229.249,210.813,221.527,210.813z"/>
	</g>
</g>
<g>
	<g>
		<polygon points="275.948,236.228 275.948,219.964 301.151,219.964 301.151,207.358 275.948,207.358 275.948,193.125 
			302.683,193.125 302.683,180.42 260.395,180.42 260.395,248.933 304.098,248.933 304.098,236.228 		"/>
	</g>
</g>
<g>
	<g>
		<path d="M357.186,180.421v20.026c0,10.263,0.306,19.517,1.324,28.564h-0.306c-3.053-7.728-7.117-16.266-11.181-23.483
			l-14.228-25.108H314.7v68.513h14.228V228.3c0-11.182-0.207-20.841-0.612-29.888l0.306-0.099
			c3.352,8.029,7.83,16.873,11.894,24.194l14.634,26.429h16.272v-68.513H357.186z"/>
	</g>
</g>
<g>
	<g>
		<polygon points="379.692,180.42 379.692,193.432 398.091,193.432 398.091,248.933 413.644,248.933 413.644,193.432 
			432.35,193.432 432.35,180.42 		"/>
	</g>
</g>
<g>
	<g>
		<rect x="256" y="268.225" width="120.163" height="15.673"/>
	</g>
</g>
<g>
	<g>
		<rect x="400.196" y="292.258" width="16.718" height="15.673"/>
	</g>
</g>
<g>
	<g>
		<rect x="424.229" y="292.258" width="16.718" height="15.673"/>
	</g>
</g>
<g>
	<g>
		<rect x="449.306" y="292.258" width="14.629" height="15.673"/>
	</g>
</g>
<g>
</g>
<g>
</g>
<g>
</g>
<g>
</g>
<g>
</g>
<g>
</g>
<g>
</g>
<g>
</g>
<g>
</g>
<g>
</g>
<g>
</g>
<g>
</g>
<g>
</g>
<g>
</g>
<g>
</g>
</svg>
