<?xml version="1.0"?>
<svg xmlns="http://www.w3.org/2000/svg" xmlns:xlink="http://www.w3.org/1999/xlink" xmlns:svgjs="http://svgjs.com/svgjs" version="1.1" width="512" height="512" x="0" y="0" viewBox="0 0 386 386.43371" style="enable-background:new 0 0 512 512" xml:space="preserve" class=""><g><path xmlns="http://www.w3.org/2000/svg" d="m316.449219 271.734375c7.554687-19.144531 11.449219-39.347656 11.449219-60.109375 0-48.785156-21.460938-92.632812-55.410157-122.671875l8.863281-8.863281 4.832032 4.832031c1.332031 1.332031 3.078125 2 4.824218 2 1.746094 0 3.496094-.667969 4.828126-2 2.664062-2.667969 2.664062-6.992187 0-9.65625l-19.3125-19.308594c-2.667969-2.664062-6.988282-2.664062-9.652344 0-2.667969 2.667969-2.667969 6.992188 0 9.652344l4.828125 4.828125-9.832031 9.832031c-25.609376-19.117187-56.976563-30.90625-90.984376-32.308593v-13.828126h17.066407c9.414062 0 17.066406-7.65625 17.066406-17.066406s-7.652344-17.066406-17.066406-17.066406h-47.785157c-9.414062 0-17.066406 7.65625-17.066406 17.066406s7.652344 17.066406 17.066406 17.066406h17.066407v13.828126c-37.453125 1.542968-71.691407 15.714843-98.578125 38.367187l-15.890625-15.890625 4.828125-4.828125c2.667968-2.664063 2.667968-6.984375 0-9.652344-2.664063-2.664062-6.988282-2.664062-9.652344 0l-9.644531 9.648438c-.003907.003906-.007813.003906-.011719.003906-.003906.003906-.003906.007813-.007812.011719l-9.644532 9.644531c-2.667968 2.667969-2.667968 6.988281 0 9.65625 1.332032 1.332031 3.078125 2 4.824219 2s3.496094-.667969 4.828125-2l4.828125-4.828125 15.449219 15.449219c-29.839844 29.691406-48.339844 70.765625-48.339844 116.082031 0 90.34375 73.496094 163.839844 163.839844 163.839844 20.730468 0 40.890625-3.882813 60-11.410156 12.015625 13.679687 29.578125 22.371093 49.171875 22.378906h.019531c36.121094 0 65.527344-29.390625 65.539062-65.519532 0 0 0 0 0-.003906.003907-19.589844-8.675781-37.152344-22.339843-49.175781zm-179.699219-254.667969c0-1.882812 1.53125-3.414062 3.414062-3.414062h47.785157c1.882812 0 3.414062 1.53125 3.414062 3.414062 0 1.882813-1.53125 3.414063-3.414062 3.414063h-47.785157c-1.882812 0-3.414062-1.53125-3.414062-3.414063zm27.308594 344.746094c-82.8125 0-150.1875-67.375-150.1875-150.1875s67.375-150.183594 150.1875-150.183594 150.183594 67.371094 150.183594 150.183594c0 17.894531-3.246094 35.300781-9.367188 51.902344-6.746094-3.734375-14.226562-6.25-22.148438-7.40625 3.570313-9.546875 6.054688-19.519532 7.25-29.753906 3.941407-33.636719-5.453124-66.792969-26.453124-93.359376-21-26.566406-51.09375-43.367187-84.726563-47.304687-28.261719-3.296875-56.070313 2.71875-80.363281 17.4375-3.226563 1.953125-4.253906 6.152344-2.300782 9.375 1.949219 3.222656 6.15625 4.261719 9.375 2.304687 21.671876-13.128906 46.445313-18.496093 71.699219-15.558593 30.015625 3.515625 56.859375 18.507812 75.601563 42.214843 18.742187 23.703126 27.121094 53.289063 23.605468 83.304688-1.207031 10.34375-3.804687 20.410156-7.71875 29.917969-.117187.289062-.09375.589843-.171874.886719-15.714844 1.117187-30.347657 7.703124-41.605469 18.953124-11.199219 11.191407-17.792969 25.738282-18.964844 41.367188-17.90625 7.554688-37.640625 10.34375-57.050781 8.082031-61.953125-7.253906-106.457032-63.558593-99.210938-125.515625.441406-3.742187-2.242187-7.136718-5.984375-7.574218-3.746093-.480469-7.136719 2.238281-7.574219 5.984374-8.128906 69.4375 41.75 132.539063 111.183594 140.664063 4.910156.578125 9.847656.859375 14.765625.859375 15.167969 0 30.195313-2.859375 44.371094-8.167969 1.144531 7.953125 3.664063 15.464844 7.40625 22.238281-16.566406 6.097657-33.9375 9.335938-51.800781 9.335938zm109.191406 10.96875c-.007812 0-.015625 0-.019531 0-28.609375-.011719-51.875-23.292969-51.867188-51.902344 0-13.859375 5.398438-26.886718 15.203125-36.679687 9.800782-9.792969 22.820313-15.1875 36.675782-15.1875h.019531c13.859375.003906 26.886719 5.402343 36.6875 15.207031 9.792969 9.800781 15.183593 22.832031 15.183593 36.6875-.007812 28.605469-23.28125 51.875-51.882812 51.875zm0 0" fill="#80a19b" data-original="#000000" style="" class=""/><path xmlns="http://www.w3.org/2000/svg" d="m107.324219 264.121094c1.628906 0 3.265625-.582032 4.570312-1.757813l37.082031-33.425781c3.464844 1.960938 7.410157 3.171875 11.664063 3.171875 13.175781 0 23.894531-10.71875 23.894531-23.894531 0-13.171875-10.71875-23.894532-23.894531-23.894532-13.171875 0-23.890625 10.722657-23.890625 23.894532 0 3.9375 1.046875 7.601562 2.746094 10.882812l-36.746094 33.128906c-2.800781 2.523438-3.019531 6.839844-.5 9.636719 1.351562 1.496094 3.210938 2.257813 5.074219 2.257813zm53.320312-66.148438c5.644531 0 10.238281 4.59375 10.238281 10.242188 0 5.644531-4.59375 10.238281-10.238281 10.238281-5.648437 0-10.242187-4.59375-10.242187-10.238281 0-5.648438 4.59375-10.242188 10.242187-10.242188zm0 0" fill="#80a19b" data-original="#000000" style="" class=""/><path xmlns="http://www.w3.org/2000/svg" d="m56.941406 157.121094c1.082032.628906 2.269532.929687 3.433594.929687 2.351562 0 4.636719-1.214843 5.90625-3.386719 3.492188-5.988281 7.570312-11.691406 12.113281-16.949218 2.464844-2.851563 2.152344-7.164063-.699219-9.628906-2.859374-2.472657-7.164062-2.160157-9.628906.699218-5.09375 5.890625-9.664062 12.285156-13.578125 19-1.902343 3.253906-.800781 7.433594 2.453125 9.335938zm0 0" fill="#80a19b" data-original="#000000" style="" class=""/><path xmlns="http://www.w3.org/2000/svg" d="m273.285156 279.894531c-3.773437 0-6.828125 3.054688-6.828125 6.824219v40.960938c0 3.769531 3.054688 6.828124 6.828125 6.828124 3.773438 0 6.824219-3.058593 6.824219-6.828124v-40.960938c0-3.769531-3.050781-6.824219-6.824219-6.824219zm0 0" fill="#80a19b" data-original="#000000" style="" class=""/><path xmlns="http://www.w3.org/2000/svg" d="m280.109375 348.160156c0 3.769532-3.054687 6.828125-6.824219 6.828125-3.773437 0-6.828125-3.058593-6.828125-6.828125 0-3.769531 3.054688-6.828125 6.828125-6.828125 3.769532 0 6.824219 3.058594 6.824219 6.828125zm0 0" fill="#80a19b" data-original="#000000" style="" class=""/></g></svg>
